<svg xmlns="http://www.w3.org/2000/svg" viewBox="0 0 152 152"><defs><style>.cls-1{fill:#fff;}.cls-2{fill:#36424d;}.cls-3{fill:#3a3f4e;}.cls-4{fill:none;}.cls-5{fill:#3a414e;}.cls-6{fill:#3b4450;}</style></defs><title>Asset 1</title><g id="Layer_2" data-name="Layer 2"><g id="Layer_1-2" data-name="Layer 1"><rect class="cls-1" width="152" height="152"/><path class="cls-2" d="M50,60.33s-4.67-26.66.33-29.66,8.34-1,8.34-1l5-4L68,25.33,75.33,23,81,26.67,87.67,24l5.66,3,1.34-2.33,3.66.33s3,29.67-.33,34.67S99.67,53.33,88.67,42c0,0-9,10.33-29.34,1C59.33,43,54.33,41.33,50,60.33Z"/><path class="cls-3" d="M70.65,106.08a8.25,8.25,0,0,1-6.06-2.65l-10-10.82A13.6,13.6,0,0,1,51,83.79L49.17,51.07l1-.06L52,83.74a12.52,12.52,0,0,0,3.31,8.19l10,10.82a7.24,7.24,0,0,0,5.49,2.33l6.64-.16a7.16,7.16,0,0,0,5.39-2.64l9.92-12.13a12.59,12.59,0,0,0,2.85-7.64L96.83,37l1,0L96.62,82.53a13.71,13.71,0,0,1-3.07,8.26l-9.93,12.13a8.18,8.18,0,0,1-6.14,3l-6.63.16Z"/><path class="cls-2" d="M74.52,92.28a16.06,16.06,0,0,1-10.2-3.92l.69-.72c.34.33,8.5,7.94,18.69.29l.6.8A16.06,16.06,0,0,1,74.52,92.28Z"/><path class="cls-2" d="M73.59,96c-3.32,0-4.22-1.17-4.34-1.35l.82-.57s1.38,1.7,7.5.47l.19,1A21.3,21.3,0,0,1,73.59,96Z"/><path class="cls-4" d="M77,69.33s6.33,11.34-2.67,11.34S70.67,80,70.67,80"/><path class="cls-2" d="M73,80.5v-1c1.83,0,3-.5,3.63-1.47,1.37-2.34-1-6.74-1.07-6.79l.88-.48c.11.2,2.71,4.95,1,7.77C76.72,79.84,75.21,80.5,73,80.5Z"/><path class="cls-5" d="M54.28,60.74l-.56-.82c.36-.25,9.05-6.17,14-1.62L67,59C62.67,55,54.37,60.69,54.28,60.74Z"/><path class="cls-2" d="M92.36,60.73c-.08-.06-7.28-5.67-11-1.72l-.72-.69c4.34-4.61,12,1.36,12.34,1.62Z"/><circle class="cls-5" cx="62" cy="64.33" r="2"/><circle class="cls-6" cx="86.84" cy="65.05" r="2"/><path class="cls-2" d="M51,79.39c-6.58-2.19-6.46-9.07-6.34-15.73,0-2.39.65-3.87,1.82-4.4,1.88-.85,4.35,1.23,4.46,1.32l-.65.76c-.58-.49-2.32-1.66-3.4-1.17-.77.35-1.2,1.56-1.23,3.51-.14,7.73.19,12.94,5.65,14.76Z"/><path class="cls-2" d="M49.88,73.89c-3-1-2.9-4.11-2.85-6.87q0-1.69.93-2.1c.94-.43,2,.48,2.18.59l-.65.76c-.31-.26-.87-.55-1.12-.44S48,66.25,48,67c-.06,3.11.07,5.2,2.17,5.9Z"/><path class="cls-2" d="M96.29,79.65l-.25-1c7.1-1.84,7.52-7,7.34-14.75,0-1.79-.5-2.93-1.37-3.38-1.48-.78-4,.51-4.87,1.08l-.55-.84c.14-.09,3.58-2.33,5.89-1.13,1.21.64,1.86,2.07,1.9,4.25C104.53,70.58,104.69,77.48,96.29,79.65Z"/><path class="cls-2" d="M97.74,74.15l-.25-1c2.77-.72,2.93-2.7,2.86-5.89,0-.44-.09-1-.42-1.17s-1.38.19-1.75.44l-.55-.84c.17-.11,1.67-1.06,2.76-.48a2.14,2.14,0,0,1,1,2C101.41,70,101.48,73.18,97.74,74.15Z"/><path class="cls-2" d="M62.92,99.35s8,6.49,21.25.23l3.75-3.13L85.67,100l-1,1.35a18.51,18.51,0,0,0-.75,3.57c0,1.12.12,3.57.12,3.57l-1.87.66a12,12,0,0,0-3.25-.2,7.93,7.93,0,0,1-3-.46l-3,.53-2-.14-2.25.52-1.38-1-2.12-.53-1.38.4-1.87-1.95-.5-6.27-2.75-4.1Z"/><path class="cls-2" d="M101.86,114.31a22.54,22.54,0,0,0-5.36-.64H86.17V99.34h-1v14.14c0,.07-.11.13-.16.19l-.53.64-.32.36c-3.64,4.09-7.48,6.1-11.4,6-5.15-.14-9.25-3.94-11.1-6l-.32-.36c-.23-.26-.41-.48-.53-.64l-.14-.18V97.84h-1v15.83h-4.4a22.54,22.54,0,0,0-5.36.64,23,23,0,0,0-17.49,19.78,22.06,22.06,0,0,0-.15,2.58v.5H119.5v-.5A23,23,0,0,0,101.86,114.31Zm-46.59.36h5.06c1.55,1.89,6.17,6.82,12.39,7h.34c4.34,0,8.51-2.35,12.42-7h11a22,22,0,0,1,22,21.5H33.28A22,22,0,0,1,55.27,114.67Z"/><path class="cls-2" d="M119.5,136.67v.08H32.42v-2.66a23,23,0,0,1,17.49-19.78H61.34l.32.36c1.85,2.06,6,5.86,11.1,6,3.92.1,7.76-1.91,11.4-6l.32-.36h17.38A23,23,0,0,1,119.5,136.67Z"/></g></g></svg>