<svg xmlns="http://www.w3.org/2000/svg" viewBox="0 0 241.69 211.78"><defs><style>.cls-1{fill:#f5d01e;}</style></defs><title>Asset 1</title><g id="Layer_2" data-name="Layer 2"><g id="Layer_1-2" data-name="Layer 1"><path class="cls-1" d="M123.52,79.78a10,10,0,0,0-13.71,3.68L73.35,146.6a10,10,0,0,0,17.39,10L127.2,93.5A10.05,10.05,0,0,0,123.52,79.78Z"/><path class="cls-1" d="M72.53,190.51H26.84L128.14,15.06a10,10,0,0,0-3.67-13.71h0A10,10,0,0,0,110.76,5L1.35,194.52A10,10,0,0,0,5,208.23c.13.08.27.14.4.21a10,10,0,0,0,6.19,2.14H72.53a10,10,0,1,0,0-20.07Z"/><path class="cls-1" d="M240.35,194.76,142.16,24.7a10,10,0,1,0-17.38,10l90.62,157H102a10,10,0,0,0,0,20.08h128.1a12.5,12.5,0,0,0,10.27-17Z"/><path class="cls-1" d="M97.52,152.49a10,10,0,0,0,10,10h53.56a10,10,0,0,0,10-10h0a10,10,0,0,0-.93-4.2,9.89,9.89,0,0,0-.69-1.48l-26.78-46.38a10,10,0,0,0-13.71-3.68h0a10,10,0,0,0-3.68,13.71l18.47,32H107.56A10,10,0,0,0,97.52,152.49Z"/></g></g></svg>